# xmcd CD database file
#
# Track frame offsets:
#	150
#	10536
#	34488
#	112573
#	158147
#	222462
#	316179
#
# Disc length: 4424 seconds
#
# Revision: 0
# Processed by: cddbd v1.5.1PL2 Copyright (c) Steve Scherf et al.
# Submitted via: CDex 1.51
#
DISCID=4d114607
DTITLE=Romy Häckelmann Sensei - Der Meisterschlüssel
DYEAR=2000
DGENRE=New Age
TTITLE0=Einleitung: Der Meisterschlüssel
TTITLE1=Übung 1: Photo-Reiki
TTITLE2=Übung 2: Symbolintegration
TTITLE3=Übung 3: Reiki-Spiegelübung
TTITLE4=Übung 4: Korrektive Bewußtseinsarbeit
TTITLE5=Übung 5: Intuitonsschulung
TTITLE6=Ausklang: Klangschalenmusik
EXTD=YEAR: 2000
EXTT0=
EXTT1=
EXTT2=
EXTT3=
EXTT4=
EXTT5=
EXTT6=
PLAYORDER=
